<?xml version="1.0" encoding="UTF-8" standalone="no"?>
<!-- Created with Inkscape (http://www.inkscape.org/) -->

<svg
   xmlns:dc="http://purl.org/dc/elements/1.1/"
   xmlns:cc="http://creativecommons.org/ns#"
   xmlns:rdf="http://www.w3.org/1999/02/22-rdf-syntax-ns#"
   xmlns:svg="http://www.w3.org/2000/svg"
   xmlns="http://www.w3.org/2000/svg"
   xmlns:sodipodi="http://sodipodi.sourceforge.net/DTD/sodipodi-0.dtd"
   xmlns:inkscape="http://www.inkscape.org/namespaces/inkscape"
   version="1.1"
   id="svg1128"
   xml:space="preserve"
   width="800"
   height="800"
   viewBox="0 0 800 800"
   sodipodi:docname="waving-stripes-color-svg.svg"
   inkscape:version="0.92.4 (5da689c313, 2019-01-14)"><metadata
     id="metadata1134"><rdf:RDF><cc:Work
         rdf:about=""><dc:format>image/svg+xml</dc:format><dc:type
           rdf:resource="http://purl.org/dc/dcmitype/StillImage" /><dc:title></dc:title></cc:Work></rdf:RDF></metadata><defs
     id="defs1132"><clipPath
       clipPathUnits="userSpaceOnUse"
       id="clipPath1144"><path
         d="M 0,600 H 600 V 0 H 0 Z"
         id="path1142"
         inkscape:connector-curvature="0" /></clipPath><clipPath
       clipPathUnits="userSpaceOnUse"
       id="clipPath1152"><path
         d="m 334.965,451.692 h 12.606 v -0.918 h -12.606 z"
         id="path1150"
         inkscape:connector-curvature="0" /></clipPath><clipPath
       clipPathUnits="userSpaceOnUse"
       id="clipPath1166"><path
         d="m 207.291,470.651 h 14.564 v -20.565 h -14.564 z"
         id="path1164"
         inkscape:connector-curvature="0" /></clipPath><clipPath
       clipPathUnits="userSpaceOnUse"
       id="clipPath1180"><path
         d="m 284.45,458.89 h 70.932 V 415.264 H 284.45 Z"
         id="path1178"
         inkscape:connector-curvature="0" /></clipPath><clipPath
       clipPathUnits="userSpaceOnUse"
       id="clipPath1194"><path
         d="M 256.494,447.528 H 409.186 V 342.979 H 256.494 Z"
         id="path1192"
         inkscape:connector-curvature="0" /></clipPath><clipPath
       clipPathUnits="userSpaceOnUse"
       id="clipPath1208"><path
         d="m 231.369,489.651 h 89.779 V 423.1 h -89.779 z"
         id="path1206"
         inkscape:connector-curvature="0" /></clipPath><clipPath
       clipPathUnits="userSpaceOnUse"
       id="clipPath1222"><path
         d="M 238.399,464.239 H 395.777 V 274.233 H 238.399 Z"
         id="path1220"
         inkscape:connector-curvature="0" /></clipPath><clipPath
       clipPathUnits="userSpaceOnUse"
       id="clipPath1236"><path
         d="M 213.615,475.654 H 345.597 V 265.506 H 213.615 Z"
         id="path1234"
         inkscape:connector-curvature="0" /></clipPath><clipPath
       clipPathUnits="userSpaceOnUse"
       id="clipPath1250"><path
         d="M 155.072,480.643 H 325.001 V 244.444 H 155.072 Z"
         id="path1248"
         inkscape:connector-curvature="0" /></clipPath><clipPath
       clipPathUnits="userSpaceOnUse"
       id="clipPath1264"><path
         d="m 187.582,496.303 h 117.76 V 279.781 h -117.76 z"
         id="path1262"
         inkscape:connector-curvature="0" /></clipPath><clipPath
       clipPathUnits="userSpaceOnUse"
       id="clipPath1278"><path
         d="M 248.864,489.45 H 418.308 V 212.553 H 248.864 Z"
         id="path1276"
         inkscape:connector-curvature="0" /></clipPath><clipPath
       clipPathUnits="userSpaceOnUse"
       id="clipPath1292"><path
         d="m 333.455,500.813 h 99.413 v -4.431 h -99.413 z"
         id="path1290"
         inkscape:connector-curvature="0" /></clipPath><clipPath
       clipPathUnits="userSpaceOnUse"
       id="clipPath1306"><path
         d="M 475.683,490.315 H 599.072 V 476.642 H 475.683 Z"
         id="path1304"
         inkscape:connector-curvature="0" /></clipPath><clipPath
       clipPathUnits="userSpaceOnUse"
       id="clipPath1320"><path
         d="M 328.771,493.227 H 599.072 V 474.214 H 328.771 Z"
         id="path1318"
         inkscape:connector-curvature="0" /></clipPath><clipPath
       clipPathUnits="userSpaceOnUse"
       id="clipPath1334"><path
         d="M 198.213,498.51 H 477.579 V 476.187 H 198.213 Z"
         id="path1332"
         inkscape:connector-curvature="0" /></clipPath><clipPath
       clipPathUnits="userSpaceOnUse"
       id="clipPath1348"><path
         d="M 318.194,478.522 H 599.072 V 458.079 H 318.194 Z"
         id="path1346"
         inkscape:connector-curvature="0" /></clipPath><clipPath
       clipPathUnits="userSpaceOnUse"
       id="clipPath1362"><path
         d="M 156.095,495.797 H 239.63 V 348.514 h -83.535 z"
         id="path1360"
         inkscape:connector-curvature="0" /></clipPath><clipPath
       clipPathUnits="userSpaceOnUse"
       id="clipPath1376"><path
         d="M -0.183594,383.559 H 490.283 V 108.592 H -0.183594 Z"
         id="path1374"
         inkscape:connector-curvature="0" /></clipPath><clipPath
       clipPathUnits="userSpaceOnUse"
       id="clipPath1390"><path
         d="M 9.92383,475.561 H 388.491 V 187.968 H 9.92383 Z"
         id="path1388"
         inkscape:connector-curvature="0" /></clipPath><clipPath
       clipPathUnits="userSpaceOnUse"
       id="clipPath1404"><path
         d="M 304.962,480.606 H 576.126 V 255.048 H 304.962 Z"
         id="path1402"
         inkscape:connector-curvature="0" /></clipPath><clipPath
       clipPathUnits="userSpaceOnUse"
       id="clipPath1418"><path
         d="m 536.985,263.709 h 49.98 V 146.788 h -49.98 z"
         id="path1416"
         inkscape:connector-curvature="0" /></clipPath><clipPath
       clipPathUnits="userSpaceOnUse"
       id="clipPath1432"><path
         d="M 43.0396,181.486 H 526.348 V 55.3076 H 43.0396 Z"
         id="path1430"
         inkscape:connector-curvature="0" /></clipPath><clipPath
       clipPathUnits="userSpaceOnUse"
       id="clipPath1446"><path
         d="M -0.183594,189.562 H 277.535 V 157.721 H -0.183594 Z"
         id="path1444"
         inkscape:connector-curvature="0" /></clipPath><clipPath
       clipPathUnits="userSpaceOnUse"
       id="clipPath1460"><path
         d="M 330.205,459.702 H 526.041 V 320.44 H 330.205 Z"
         id="path1458"
         inkscape:connector-curvature="0" /></clipPath><clipPath
       clipPathUnits="userSpaceOnUse"
       id="clipPath1474"><path
         d="M -0.183594,369.815 H 299.057 V 248.838 H -0.183594 Z"
         id="path1472"
         inkscape:connector-curvature="0" /></clipPath><clipPath
       clipPathUnits="userSpaceOnUse"
       id="clipPath1488"><path
         d="M -0.183594,296.026 H 419.57 V 165.428 H -0.183594 Z"
         id="path1486"
         inkscape:connector-curvature="0" /></clipPath><clipPath
       clipPathUnits="userSpaceOnUse"
       id="clipPath1502"><path
         d="m 215.838,493.775 h 170.45 V 354.647 h -170.45 z"
         id="path1500"
         inkscape:connector-curvature="0" /></clipPath><clipPath
       clipPathUnits="userSpaceOnUse"
       id="clipPath1516"><path
         d="M 77.0864,494.52 H 255.689 V 279.077 H 77.0864 Z"
         id="path1514"
         inkscape:connector-curvature="0" /></clipPath><clipPath
       clipPathUnits="userSpaceOnUse"
       id="clipPath1530"><path
         d="M 240.48,490.21 H 408.003 V 215.666 H 240.48 Z"
         id="path1528"
         inkscape:connector-curvature="0" /></clipPath><clipPath
       clipPathUnits="userSpaceOnUse"
       id="clipPath1544"><path
         d="M 263.222,487.109 H 511.227 V 186.821 H 263.222 Z"
         id="path1542"
         inkscape:connector-curvature="0" /></clipPath></defs><sodipodi:namedview
     pagecolor="#ffffff"
     bordercolor="#666666"
     borderopacity="1"
     objecttolerance="10"
     gridtolerance="10"
     guidetolerance="10"
     inkscape:pageopacity="0"
     inkscape:pageshadow="2"
     inkscape:window-width="1920"
     inkscape:window-height="1018"
     id="namedview1130"
     showgrid="false"
     inkscape:zoom="0.78512539"
     inkscape:cx="466.10169"
     inkscape:cy="320.33898"
     inkscape:window-x="-8"
     inkscape:window-y="-8"
     inkscape:window-maximized="1"
     inkscape:current-layer="g1136" /><g
     id="g1136"
     inkscape:groupmode="layer"
     inkscape:label="abstract-866-publicdomainvectors.org"
     transform="matrix(1.3333333,0,0,-1.3333333,0,800)"><g
       id="g1138"><g
         id="g1140"
         clip-path="url(#clipPath1144)"><g
           id="g1146"><g
             id="g1148" /><g
             id="g1158"><g
               clip-path="url(#clipPath1152)"
               id="g1156"><path
                 d="m 347.571,450.774 c -4.257,0.346 -8.462,0.652 -12.606,0.918 4.144,-0.266 8.349,-0.572 12.606,-0.918"
                 style="fill:#ffffff;fill-opacity:1;fill-rule:nonzero;stroke:none"
                 id="path1154"
                 inkscape:connector-curvature="0" /></g></g></g><g
           id="g1160"><g
             id="g1162" /><g
             id="g1172"><g
               clip-path="url(#clipPath1166)"
               id="g1170"><path
                 d="m 217.105,450.109 c -2.914,-0.027 -5.8,-0.027 -8.674,-0.014 -2.655,7.225 -0.599,14.928 5.402,20.556 2.634,-0.16 5.308,-0.292 8.022,-0.426 -5.821,-5.507 -7.637,-13.078 -4.75,-20.116"
                 style="fill:#18abe3;fill-opacity:1;fill-rule:nonzero;stroke:none"
                 id="path1168"
                 inkscape:connector-curvature="0" /></g></g></g><g
           id="g1174"><g
             id="g1176" /><g
             id="g1186"><g
               clip-path="url(#clipPath1180)"
               id="g1184"><path
                 d="m 355.382,415.423 c -4.225,0.014 -8.376,-0.039 -12.441,-0.159 -34.378,17.429 -59.598,30.654 -58.454,43.626 4.124,-0.12 8.316,-0.253 12.574,-0.426 -0.972,-12.559 24.287,-25.491 58.321,-43.041"
                 style="fill:#f4d8c1;fill-opacity:1;fill-rule:nonzero;stroke:none"
                 id="path1182"
                 inkscape:connector-curvature="0" /></g></g></g><g
           id="g1188"><g
             id="g1190" /><g
             id="g1200"><g
               clip-path="url(#clipPath1194)"
               id="g1198"><path
                 d="m 409.186,342.979 c -6.041,0.213 -12.134,0.373 -18.282,0.532 -13.217,26.876 -40.93,48.842 -71.832,65.287 -28.491,15.14 -52.985,25.612 -62.578,38.304 3.932,0.147 7.923,0.306 11.987,0.426 9.586,-12.148 33.548,-22.419 62.121,-37.347 32.29,-16.883 62.432,-39.235 78.584,-67.202"
                 style="fill:#f4c4a4;fill-opacity:1;fill-rule:nonzero;stroke:none"
                 id="path1196"
                 inkscape:connector-curvature="0" /></g></g></g><g
           id="g1202"><g
             id="g1204" /><g
             id="g1214"><g
               clip-path="url(#clipPath1208)"
               id="g1212"><path
                 d="m 274.642,424.723 c -3.878,-0.572 -7.737,-1.13 -11.629,-1.623 -26.729,15.567 -38.231,34.153 -27.867,45.316 11.23,12.001 40.712,18.375 74.873,21.235 3.626,-0.453 7.331,-0.932 11.129,-1.411 -34.167,-2.608 -63.463,-8.635 -74.473,-20.262 -10.031,-10.684 1.596,-28.5 27.967,-43.255"
                 style="fill:#bfdd1c;fill-opacity:1;fill-rule:nonzero;stroke:none"
                 id="path1210"
                 inkscape:connector-curvature="0" /></g></g></g><g
           id="g1216"><g
             id="g1218" /><g
             id="g1228"><g
               clip-path="url(#clipPath1222)"
               id="g1226"><path
                 d="m 384.506,274.233 c -9.933,1.744 -19.924,3.473 -29.969,5.229 19.266,23.164 20.809,49.707 10.264,71.234 -10.158,20.635 -30.042,38.171 -53.079,52.035 -22.685,13.624 -47.232,23.177 -60.909,34.964 -10.478,9.034 -14.988,18.867 -10.944,26.544 4.219,-0.107 8.528,-0.2 12.92,-0.293 -3.886,-7.304 0.732,-16.671 11.063,-25.225 13.491,-11.097 37.413,-20.198 61.56,-34.021 50.704,-29.017 90.792,-82.45 59.094,-130.467"
                 style="fill:#f1a071;fill-opacity:1;fill-rule:nonzero;stroke:none"
                 id="path1224"
                 inkscape:connector-curvature="0" /></g></g></g><g
           id="g1230"><g
             id="g1232" /><g
             id="g1242"><g
               clip-path="url(#clipPath1236)"
               id="g1240"><path
                 d="m 297.499,265.506 c -11.462,2.727 -22.917,5.508 -34.359,8.342 39.182,19.89 58.527,48.482 55.414,72.444 -3.007,22.326 -22.279,41.923 -45.875,57.144 -24.048,15.513 -47.617,28.139 -56.292,42.641 -6.26,10.525 -1.523,22.765 10.258,29.577 3.885,-0.266 7.856,-0.519 11.915,-0.771 -11.463,-6.533 -15.754,-18.415 -9.187,-28.499 9.159,-14.024 33.934,-25.998 60.156,-41.365 26.124,-15.34 48.117,-35.709 54.51,-59.605 6.766,-25.479 -8.462,-56.998 -46.54,-79.908"
                 style="fill:#18abe3;fill-opacity:1;fill-rule:nonzero;stroke:none"
                 id="path1238"
                 inkscape:connector-curvature="0" /></g></g></g><g
           id="g1244"><g
             id="g1246" /><g
             id="g1256"><g
               clip-path="url(#clipPath1250)"
               id="g1254"><path
                 d="m 190.336,244.444 c -11.901,4.63 -23.669,9.287 -35.264,13.983 37.712,6.44 70.043,16.658 94.477,29.936 20.974,11.429 35.67,25.24 42.342,39.236 11.548,24.441 -2.927,50.558 -25.991,68.865 -24.168,19.173 -52.467,33.528 -60.789,50.905 -5.78,12.186 4.258,26.396 21.148,33.274 3.832,-0.346 7.763,-0.678 11.795,-0.998 -16.472,-6.612 -25.851,-20.502 -19.445,-32.237 9.36,-17.043 40.313,-30.694 67.482,-49.92 26.395,-18.732 45.05,-45.847 37.033,-73.029 -4.557,-15.274 -17.482,-30.894 -37.652,-44.092 -23.437,-15.327 -56.086,-27.661 -95.136,-35.923"
                 style="fill:#ef8048;fill-opacity:1;fill-rule:nonzero;stroke:none"
                 id="path1252"
                 inkscape:connector-curvature="0" /></g></g></g><g
           id="g1258"><g
             id="g1260" /><g
             id="g1270"><g
               clip-path="url(#clipPath1264)"
               id="g1268"><path
                 d="m 225.447,279.781 c -12.739,3.473 -25.372,7.026 -37.865,10.725 28.878,9.685 51.13,22.697 63.464,37.253 10.57,12.519 13.57,26.822 9.945,39.155 -7.484,25.199 -40.007,42.855 -60.097,64.262 -15.141,16.193 -13.971,35.604 1.902,45.329 19.751,12.028 52.946,17.349 91.749,19.798 3.474,-0.532 7.072,-1.077 10.797,-1.623 -38.73,-2.248 -71.712,-7.357 -90.751,-19.173 -15.234,-9.499 -15.001,-28.778 2.302,-44.57 23.735,-21.607 60.789,-38.69 72.497,-65.193 5.788,-13.145 5.275,-28.619 -3.639,-42.789 -10.225,-16.178 -31.366,-31.466 -60.304,-43.174"
                 style="fill:#ef6f36;fill-opacity:1;fill-rule:nonzero;stroke:none"
                 id="path1266"
                 inkscape:connector-curvature="0" /></g></g></g><g
           id="g1272"><g
             id="g1274" /><g
             id="g1284"><g
               clip-path="url(#clipPath1278)"
               id="g1282"><path
                 d="m 343.953,212.553 c -14.157,4.63 -28.272,9.233 -42.362,13.783 43.18,18.508 71.266,43.76 80.679,69.145 8.169,22.259 2.435,45.183 -10.876,63.996 -25.619,36.069 -81.624,54.164 -110.895,76.995 -18.341,14.368 -13.857,33.514 5.468,40.871 27.634,10.472 70.575,12.853 123.761,11.922 5.647,-0.878 11.488,-1.81 17.529,-2.742 -53.924,1.411 -96.998,-0.545 -124.612,-10.416 -18.893,-6.799 -23.031,-24.92 -5.03,-38.278 29.111,-21.541 86.72,-40.367 118.1,-78.099 16.556,-19.917 26.17,-44.292 21.348,-68.878 -5.502,-27.714 -30.515,-56.493 -73.11,-78.299"
                 style="fill:#ffffff;fill-opacity:1;fill-rule:nonzero;stroke:none"
                 id="path1280"
                 inkscape:connector-curvature="0" /></g></g></g><g
           id="g1286"><g
             id="g1288" /><g
             id="g1298"><g
               clip-path="url(#clipPath1292)"
               id="g1296"><path
                 d="m 338.784,499.789 c -1.83,0.333 -3.598,0.678 -5.329,1.024 28.332,0.014 59.432,-1.078 93.646,-3.206 1.869,-0.413 3.792,-0.812 5.767,-1.225 -34.413,2.222 -65.658,3.381 -94.084,3.407"
                 style="fill:#f6ede0;fill-opacity:1;fill-rule:nonzero;stroke:none"
                 id="path1294"
                 inkscape:connector-curvature="0" /></g></g></g><g
           id="g1300"><g
             id="g1302" /><g
             id="g1312"><g
               clip-path="url(#clipPath1306)"
               id="g1310"><path
                 d="m 599.072,476.642 c -42.188,5.084 -80.08,9 -114.355,11.904 -3.093,0.599 -6.107,1.184 -9.034,1.769 36.71,-2.997 77.561,-7.158 123.389,-12.677 z"
                 style="fill:#f4d8c1;fill-opacity:1;fill-rule:nonzero;stroke:none"
                 id="path1308"
                 inkscape:connector-curvature="0" /></g></g></g><g
           id="g1314"><g
             id="g1316" /><g
             id="g1326"><g
               clip-path="url(#clipPath1320)"
               id="g1324"><path
                 d="m 599.072,474.214 c -10.755,1.301 -21.211,2.52 -31.38,3.661 -35.63,3.992 -68.074,7.065 -97.75,9.314 -50.791,3.818 -94.297,5.282 -131.431,4.084 -3.319,0.48 -6.567,0.945 -9.74,1.398 36.896,1.396 79.976,0.133 130.115,-3.446 29.21,-2.089 61.089,-4.99 96.034,-8.794 14.15,-1.535 28.855,-3.223 44.152,-5.072 z"
                 style="fill:#eb048a;fill-opacity:1;fill-rule:nonzero;stroke:none"
                 id="path1322"
                 inkscape:connector-curvature="0" /></g></g></g><g
           id="g1328"><g
             id="g1330" /><g
             id="g1340"><g
               clip-path="url(#clipPath1334)"
               id="g1338"><path
                 d="m 207.021,476.187 c -2.995,0.265 -5.935,0.545 -8.808,0.837 20.163,12.068 53.484,17.456 92.394,19.958 48.25,3.086 106.79,1.41 177.772,-4.232 2.959,-0.611 6.032,-1.237 9.2,-1.875 -71.725,5.934 -130.666,7.809 -179.035,4.869 -38.824,-2.355 -71.972,-7.61 -91.523,-19.557"
                 style="fill:#18abe3;fill-opacity:1;fill-rule:nonzero;stroke:none"
                 id="path1336"
                 inkscape:connector-curvature="0" /></g></g></g><g
           id="g1342"><g
             id="g1344" /><g
             id="g1354"><g
               clip-path="url(#clipPath1348)"
               id="g1352"><path
                 d="m 599.072,463.002 c -24.836,2.912 -47.816,5.294 -69.126,7.184 -41.038,3.632 -76.289,5.521 -106.324,5.508 -45.742,-0.04 -83.927,-6.027 -87.499,-17.615 -6.094,0.492 -12.067,0.904 -17.929,1.277 3.819,12.001 41.751,18.586 86.861,19.119 29.443,0.345 63.87,-1.198 103.769,-4.444 27.227,-2.208 57.179,-5.235 90.248,-9.149 z"
                 style="fill:#b5b9bf;fill-opacity:1;fill-rule:nonzero;stroke:none"
                 id="path1350"
                 inkscape:connector-curvature="0" /></g></g></g><g
           id="g1356"><g
             id="g1358" /><g
             id="g1368"><g
               clip-path="url(#clipPath1362)"
               id="g1366"><path
                 d="m 205.311,348.514 c -9.873,1.689 -19.671,3.526 -29.364,5.508 24.993,26.649 -11.495,58.979 -19.112,89.727 -2.914,11.935 2.9,24.907 15.227,33.022 14.216,9.314 35.704,15.208 60.21,19.026 2.369,-0.439 4.817,-0.851 7.358,-1.277 -24.201,-3.792 -45.382,-9.672 -58.754,-19.039 -11.654,-8.195 -15.965,-21.447 -11.148,-33.395 12.978,-31.958 58.114,-63.45 35.583,-93.572"
                 style="fill:#f4905b;fill-opacity:1;fill-rule:nonzero;stroke:none"
                 id="path1364"
                 inkscape:connector-curvature="0" /></g></g></g><g
           id="g1370"><g
             id="g1372" /><g
             id="g1382"><g
               clip-path="url(#clipPath1376)"
               id="g1380"><path
                 d="m -0.184,144.056 c 15.711,-2.39 31.595,-4.361 47.601,-5.903 38.703,-3.725 77.273,-4.83 114.866,-3.327 36.715,1.49 71.745,5.495 104.289,11.828 60.39,11.828 109.625,31.48 143.125,56.12 28.951,21.42 45.237,46.487 49.063,70.702 6.586,42.335 -23.684,82.275 -61.23,110.083 6.268,-0.013 12.647,-0.173 19.14,-0.479 40.319,-28.858 75.317,-70.09 73.549,-115.684 -1.099,-26.011 -14.755,-53.54 -42.496,-77.488 -32.037,-27.594 -81.691,-50.358 -144.35,-64.674 -33.914,-7.704 -70.834,-12.852 -109.87,-15.181 -40.081,-2.395 -81.519,-1.849 -123.315,1.664 -23.699,1.981 -47.21,4.88 -70.372,8.675 z"
                 style="fill:#eb048a;fill-opacity:1;fill-rule:nonzero;stroke:none"
                 id="path1378"
                 inkscape:connector-curvature="0" /></g></g></g><g
           id="g1384"><g
             id="g1386" /><g
             id="g1396"><g
               clip-path="url(#clipPath1390)"
               id="g1394"><path
                 d="m 35.263,190.507 c -8.609,7.678 -17.063,15.247 -25.339,22.724 33.528,-3.352 67.049,-4.497 99.826,-3.366 31.811,1.105 62.219,4.311 90.485,9.553 51.662,9.606 93.945,25.705 122.031,46.127 44.072,32.198 43.972,77.447 18.873,106.665 -24.461,28.312 -70.449,43.293 -95.042,64.142 -16.159,13.743 -14.343,31.293 1.197,39.209 4.829,-0.306 9.779,-0.612 14.854,-0.931 -15.134,-7.424 -16.578,-24.122 -0.652,-37.001 24.248,-19.518 72.444,-34.766 101.496,-64.315 30.281,-30.933 38.497,-79.203 -2.662,-116.164 -25.937,-23.204 -68.146,-42.415 -121.524,-54.576 -29.384,-6.691 -61.489,-11.136 -95.455,-13.238 -35.158,-2.143 -71.487,-1.782 -108.088,1.171"
                 style="fill:#eb048a;fill-opacity:1;fill-rule:nonzero;stroke:none"
                 id="path1392"
                 inkscape:connector-curvature="0" /></g></g></g><g
           id="g1398"><g
             id="g1400" /><g
             id="g1410"><g
               clip-path="url(#clipPath1404)"
               id="g1408"><path
                 d="m 526.766,255.048 c -12.034,2.98 -24.015,5.734 -35.942,8.276 4.709,57.982 -50.006,107.875 -103.657,138.954 -42.881,24.774 -79.782,38.518 -82.144,53.858 -1.503,10.378 24.92,20.196 57.303,22.844 22.419,1.823 48.336,2.076 77.973,0.945 31.3,-1.197 67.243,-3.939 108.273,-8.103 8.856,-1.676 18.035,-3.419 27.554,-5.255 -42.607,4.683 -79.761,7.85 -111.973,9.446 -30.486,1.504 -57.016,1.596 -79.874,0.107 -32.663,-2.142 -59.066,-11.309 -57.317,-21.142 2.814,-14.874 39.316,-28.924 82.19,-53.937 55.335,-32.304 115.66,-83.395 117.614,-145.993"
                 style="fill:#ec602a;fill-opacity:1;fill-rule:nonzero;stroke:none"
                 id="path1406"
                 inkscape:connector-curvature="0" /></g></g></g><g
           id="g1412"><g
             id="g1414" /><g
             id="g1424"><g
               clip-path="url(#clipPath1418)"
               id="g1422"><path
                 d="m 562.963,146.788 c -8.701,3.925 -17.364,7.703 -25.978,11.349 26.943,34.3 32.191,72.125 22.611,105.572 6.959,-1.836 13.969,-3.778 21.048,-5.841 11.496,-34.885 8.276,-74.626 -17.681,-111.08"
                 style="fill:#f6ede0;fill-opacity:1;fill-rule:nonzero;stroke:none"
                 id="path1420"
                 inkscape:connector-curvature="0" /></g></g></g><g
           id="g1426"><g
             id="g1428" /><g
             id="g1438"><g
               clip-path="url(#clipPath1432)"
               id="g1436"><path
                 d="m 56.031,62.769 c -4.263,7.343 -8.594,14.528 -12.991,21.566 52.021,-6.812 104.189,-9.153 154.767,-7.052 49.34,2.063 95.714,8.343 137.544,18.454 76.376,18.6 133.042,49.534 163.709,85.749 9.06,-3.352 18.161,-6.825 27.288,-10.43 C 497.189,132.259 440.445,98.425 361.881,77.67 318.787,66.308 270.537,59.149 218.921,56.435 165.916,53.761 110.994,55.837 56.031,62.769"
                 style="fill:#f4d8c1;fill-opacity:1;fill-rule:nonzero;stroke:none"
                 id="path1434"
                 inkscape:connector-curvature="0" /></g></g></g><g
           id="g1440"><g
             id="g1442" /><g
             id="g1452"><g
               clip-path="url(#clipPath1446)"
               id="g1450"><path
                 d="m -0.184,181.85 c 30.333,-4.024 61.176,-6.348 92.065,-6.91 56.406,-0.998 109.884,3.979 157.196,14.623 9.446,-4.337 18.933,-8.755 28.458,-13.225 -48.522,-12.414 -104.309,-18.76 -163.761,-18.614 -31.433,0.093 -63.118,2.008 -94.544,5.681 -6.495,0.762 -12.968,1.599 -19.414,2.509 z"
                 style="fill:#f4c4a4;fill-opacity:1;fill-rule:nonzero;stroke:none"
                 id="path1448"
                 inkscape:connector-curvature="0" /></g></g></g><g
           id="g1454"><g
             id="g1456" /><g
             id="g1466"><g
               clip-path="url(#clipPath1460)"
               id="g1464"><path
                 d="m 526.041,320.44 c -7.343,1.438 -14.596,2.742 -21.767,3.913 -33.448,44.69 -86.546,74.253 -128.151,96.406 -29.616,15.779 -50.085,28.87 -45.196,38.943 5.695,-0.44 11.496,-0.919 17.409,-1.464 -4.763,-9.819 16.053,-22.804 45.569,-38.877 41.571,-22.644 95.688,-52.926 132.136,-98.921"
                 style="fill:#8d1f8f;fill-opacity:1;fill-rule:nonzero;stroke:none"
                 id="path1462"
                 inkscape:connector-curvature="0" /></g></g></g><g
           id="g1468"><g
             id="g1470" /><g
             id="g1480"><g
               clip-path="url(#clipPath1474)"
               id="g1478"><path
                 d="m -0.184,265.958 c 24.765,-1.923 49.455,-2.426 73.652,-1.49 29.988,1.171 58.341,4.511 84.205,9.925 45.542,9.593 81.199,25.505 100.351,44.89 15.613,15.9 18.933,35.085 12.141,50.532 7.73,-0.306 15.34,-0.479 22.83,-0.546 9.027,-16.272 8.569,-36.694 -5.434,-54.443 -16.917,-21.314 -52.122,-39.874 -98.782,-51.555 -26.669,-6.667 -56.385,-11.083 -88.17,-13.132 -32.739,-2.115 -66.671,-1.655 -100.793,1.404 z"
                 style="fill:#f1a071;fill-opacity:1;fill-rule:nonzero;stroke:none"
                 id="path1476"
                 inkscape:connector-curvature="0" /></g></g></g><g
           id="g1482"><g
             id="g1484" /><g
             id="g1494"><g
               clip-path="url(#clipPath1488)"
               id="g1492"><path
                 d="m -0.184,192.199 c 38.764,-4.926 78.053,-6.99 116.819,-6.123 52.64,1.225 101.601,7.851 143.964,19.492 38.251,10.55 69.755,24.879 92.314,41.777 19.899,14.941 32.617,31.904 37.673,48.681 9.732,-1.251 19.398,-2.487 28.984,-3.792 -2.933,-18.041 -13.65,-36.707 -32.357,-53.418 -21.154,-18.839 -52.255,-35.337 -91.11,-47.817 -43.275,-13.797 -94.431,-22.298 -150.251,-24.812 -48.077,-2.126 -97.395,0.225 -146.036,6.908 z"
                 style="fill:#ffffff;fill-opacity:1;fill-rule:nonzero;stroke:none"
                 id="path1490"
                 inkscape:connector-curvature="0" /></g></g></g><g
           id="g1496"><g
             id="g1498" /><g
             id="g1508"><g
               clip-path="url(#clipPath1502)"
               id="g1506"><path
                 d="m 347.545,354.647 c -8.249,0 -16.678,0.054 -25.279,0.2 -9.021,25.652 -38.637,44.664 -68,62.213 -25.739,15.394 -41.684,31.266 -37.866,44.478 3.386,11.441 21.873,19.558 48.729,24.774 28.159,5.48 66.836,7.995 108.214,7.37 4.178,-0.679 8.495,-1.37 12.945,-2.102 -41.664,0.891 -80.4,-1.384 -108.46,-6.559 -26.769,-4.937 -45.036,-12.719 -48.01,-23.736 -3.366,-12.706 12.673,-28.167 39.735,-42.669 32.177,-17.229 64.806,-36.747 77.992,-63.969"
                 style="fill:#18abe3;fill-opacity:1;fill-rule:nonzero;stroke:none"
                 id="path1504"
                 inkscape:connector-curvature="0" /></g></g></g><g
           id="g1510"><g
             id="g1512" /><g
             id="g1522"><g
               clip-path="url(#clipPath1516)"
               id="g1520"><path
                 d="m 110.195,279.077 c -11.322,4.909 -22.372,9.871 -33.109,14.901 37.267,3.353 70.196,10.55 96.121,21.367 21.746,9.1 37.904,20.902 45.415,33.422 12.899,21.673 -4.004,45.476 -22.858,65.619 -17.728,18.946 -29.682,38.184 -19.624,52.421 9.872,13.89 38.145,23.057 70.003,27.713 3.067,-0.479 6.247,-0.958 9.546,-1.424 -31.479,-4.536 -59.405,-13.77 -67.854,-27.394 -8.901,-14.515 6.186,-33.661 28.326,-52.633 23.669,-20.29 45.455,-44.465 35.597,-68.786 -5.595,-13.73 -20.529,-27.382 -42.05,-38.184 -25.705,-12.867 -59.918,-22.06 -99.513,-27.022"
                 style="fill:#bfdd1c;fill-opacity:1;fill-rule:nonzero;stroke:none"
                 id="path1518"
                 inkscape:connector-curvature="0" /></g></g></g><g
           id="g1524"><g
             id="g1526" /><g
             id="g1536"><g
               clip-path="url(#clipPath1530)"
               id="g1534"><path
                 d="m 327.747,215.666 c -14.129,4.697 -28.239,9.287 -42.289,13.903 44.006,17.31 73.755,41.326 84.978,66.059 9.718,21.513 5.668,44.092 -6.333,62.678 -23.17,35.684 -77.959,53.738 -108.108,77.168 -10.717,8.342 -16.671,17.07 -15.327,24.72 1.197,6.639 9.16,13.119 19.611,17.256 27.268,10.737 69.897,13.358 122.51,12.654 5.462,-0.839 11.109,-1.73 16.951,-2.649 -53.272,1.171 -96.008,-0.998 -123.196,-11.176 -18.753,-7.065 -22.385,-25.612 -3.831,-39.356 29.775,-21.965 87.139,-40.844 116.257,-78.338 15.247,-19.743 23.249,-43.812 16.77,-67.694 -7.411,-27.088 -34.333,-54.669 -77.993,-75.225"
                 style="fill:#bd222c;fill-opacity:1;fill-rule:nonzero;stroke:none"
                 id="path1532"
                 inkscape:connector-curvature="0" /></g></g></g><g
           id="g1538"><g
             id="g1540" /><g
             id="g1550"><g
               clip-path="url(#clipPath1544)"
               id="g1548"><path
                 d="m 369.411,186.821 c -15.088,5.708 -30.141,11.27 -45.163,16.711 53.358,22.458 85.39,54.603 92.375,85.789 5.974,27.222 -5.94,54.257 -25.578,75.664 -18.886,20.569 -44.771,36.908 -71.446,49.999 -23.144,11.363 -41.664,20.476 -50.798,30.575 -6.905,7.636 -7.504,16.444 -1.218,22.325 6.972,6.453 20.929,10.949 37.373,13.837 21.394,3.752 46.7,5.402 75.931,5.388 30.88,0 66.723,-1.849 107.681,-5.135 7.272,-1.318 14.822,-2.688 22.659,-4.112 -42.11,3.713 -78.771,5.921 -110.231,6.28 -29.755,0.333 -55.4,-0.997 -76.994,-4.403 -16.418,-2.594 -30.268,-6.693 -37.14,-12.786 -6.093,-5.429 -5.335,-13.745 1.557,-20.876 9.22,-9.526 27.494,-18.387 50.159,-29.763 26.821,-13.503 54.741,-30.042 76.602,-51.409 23.063,-22.578 39.388,-51.09 37.5,-80.959 -2.23,-33.98 -30.289,-70.528 -83.269,-97.125"
                 style="fill:#63a434;fill-opacity:1;fill-rule:nonzero;stroke:none"
                 id="path1546"
                 inkscape:connector-curvature="0" /></g></g></g></g></g></g></svg>